<svg xmlns="http://www.w3.org/2000/svg" viewBox="0 0 16 16" width="16" height="16" role="img" aria-label="Fixed-width file">
  <g fill="#607D8B">
    <rect x="2"  y="3"   width="3" height="1.4" rx=".3"/>
    <rect x="5.5" y="3"  width="3" height="1.4" rx=".3"/>
    <rect x="9"  y="3"   width="3" height="1.4" rx=".3"/>
    <rect x="2"  y="5.6" width="3" height="1.4" rx=".3"/>
    <rect x="5.5" y="5.6" width="3" height="1.4" rx=".3"/>
    <rect x="9"  y="5.6" width="3" height="1.4" rx=".3"/>
    <rect x="2"  y="8.2" width="3" height="1.4" rx=".3"/>
    <rect x="5.5" y="8.2" width="3" height="1.4" rx=".3"/>
    <rect x="9"  y="8.2" width="3" height="1.4" rx=".3"/>
    <rect x="2"  y="10.8" width="3" height="1.4" rx=".3"/>
    <rect x="5.5" y="10.8" width="3" height="1.4" rx=".3"/>
    <rect x="9"  y="10.8" width="3" height="1.4" rx=".3"/>
  </g>
</svg>
