<svg xmlns="http://www.w3.org/2000/svg" viewBox="0 0 16 16" width="16" height="16" role="img" aria-label="MariaDB">
  <g fill="none" stroke="#003545" stroke-width="1.1" stroke-linejoin="round" stroke-linecap="round">
    <path d="M2 11.5c.5-1.6 2-2.8 3.7-3.2 1.6-.4 3.4-.1 4.7.8.7.5 1.3 1.2 1.6 2"/>
    <path d="M10.5 9c1-.4 1.9-1.1 2.5-2 .3-.4.5-1 .3-1.5-.2-.5-.8-.7-1.3-.6-.7.1-1.3.6-1.7 1.2"/>
    <path d="M3.4 11.7c-.4.5-.5 1.2-.3 1.7"/>
    <circle cx="11.2" cy="6.5" r=".55" fill="#003545" stroke="none"/>
  </g>
  <path d="M5.5 12.5c.4-.4 1-.4 1.4 0" fill="none" stroke="#C0765A" stroke-width="1" stroke-linecap="round"/>
</svg>
