<svg xmlns="http://www.w3.org/2000/svg" viewBox="0 0 16 16" width="16" height="16" role="img" aria-label="MySQL">
  <g fill="none" stroke="#00758F" stroke-width="1.1" stroke-linejoin="round" stroke-linecap="round">
    <path d="M1.8 9.5c1.2-1.6 3.4-2.8 5.6-2.8 2.5 0 4.6 1 6 2.7.4.5.9 1.1 1 1.8"/>
    <path d="M11 7.2c.4-.5.7-1 .8-1.6.1-.5 0-1.1-.4-1.5-.5-.5-1.4-.6-2.1-.3-.6.2-1.1.7-1.5 1.3"/>
    <path d="M2.4 9.7c.6.6 1.4 1 2.2 1.2.3.1.7.1 1 0"/>
    <circle cx="10.3" cy="5.6" r=".55" fill="#00758F" stroke="none"/>
  </g>
  <path d="M3 12.5l1.6.6.4-.6-.6-1.2" fill="none" stroke="#F29111" stroke-width="1" stroke-linecap="round"/>
</svg>
