<svg xmlns="http://www.w3.org/2000/svg" viewBox="0 0 16 16" width="16" height="16" role="img" aria-label="PostgreSQL">
  <g fill="none" stroke="#336791" stroke-width="1.1" stroke-linejoin="round" stroke-linecap="round">
    <path d="M8 2.2c2.4 0 4.7 1.1 4.7 3.6 0 1.4-.6 2.3-1.3 3 .6.4 1 1 1 1.7 0 1.4-1.5 2.4-3 2.8-.6.2-1.3.3-1.8.3-.7-.5-1.1-1.5-1.1-2.5"/>
    <path d="M6.2 13.5c-.6-.1-1.2-.4-1.7-.8-1.2-.9-1.7-2.6-1.7-4.3 0-1.3.3-2.6.9-3.6.4-.7 1.1-1.4 2-1.8"/>
    <path d="M7.3 4.5c-.2 1.5-.1 3 .2 4.2.2.7.4 1.3.7 1.8"/>
    <circle cx="6.4" cy="6.1" r=".55" fill="#336791" stroke="none"/>
  </g>
</svg>
