<svg xmlns="http://www.w3.org/2000/svg" viewBox="0 0 16 16" width="16" height="16" role="img" aria-label="SQLite">
  <g fill="none" stroke="#003B57" stroke-width="1.1" stroke-linejoin="round" stroke-linecap="round">
    <path d="M2.5 4.5c0-1 1.6-1.8 3.7-1.8h4.3c1.6 0 2.9.5 2.9 1.2v7.3c0 .8-1.3 1.3-2.9 1.3H6.2c-2.1 0-3.7-.7-3.7-1.7z"/>
    <path d="M5 6.5c.8-.6 1.7-1 2.7-1.1 1.5-.2 3 .3 3.9 1.2"/>
    <path d="M5.4 9.5c.4-.6 1-.9 1.7-1 .8-.1 1.6.2 2.2.7"/>
    <path d="M11.5 3.2l1.5 1.5-3.3 6.3-1.3.2.5-1.2z" fill="#003B57"/>
  </g>
</svg>
